<?xml version="1.0" encoding="UTF-8"?>
<svg id="Layer_1" xmlns="http://www.w3.org/2000/svg" version="1.1" viewBox="0 0 100 100">
  <!-- Generator: Adobe Illustrator 30.6.0, SVG Export Plug-In . SVG Version: 2.1.4 Build 109)  -->
  <defs>
    <style>
      .st0 {
        fill: #ebe2d9;
      }

      .st1 {
        fill: #6e594b;
      }
    </style>
  </defs>
  <rect class="st0" width="100" height="100" rx="22" ry="22"/>
  <g>
    <g>
      <path class="st1" d="M54.5,48.1c3-4.8,6.2-9.2,9.9-13.4s2.8-2.6,4.5-2.5,2.7,2.4,1.9,3.9c-2.6,5.5-12.3,15.3-10.5,17.4s1.3.5,1.7.2l3.8-2.6c4.4-3,10.1-3.4,13.3,1,5.7,7.8-5.9,17.7-12.9,22.6s-24.4,10-35.3,4.5c-5.8-2.9-9.7-8.2-10.9-14.5-2.1-11,.9-22.8,6.4-32.4s4.9-8.4,9.2-10c.7-.3,1.4-.5,2.1-.4s1.5.5,1.8,1.1c.5,1.1-.2,2.3-.9,3.2-2.9,4.1-6,8.1-8.1,12.7s-3.4,9-4.1,13.7c-1.2,8,0,17,7.7,20.6s20.1,1.2,28-3.9,6.7-4.9,9.6-7.8,1.9-2.5,2.3-3.8-.7-2.5-2-2.5c-1.8,0-3.2.9-4.6,2-2.1,1.7-4.6,2.9-7.3,2.9-3.9,0-6.9-3.1-6.8-6.9s.2-3.4,1.3-5.1Z"/>
      <path class="st1" d="M45.5,60.3c1.6-.9,3.4,0,4.2,1.2s.8,3.2-.6,4.4c-4.1,3.4-11.7,4.3-15.7.3s-2.6-3.1-2.1-5.1.8-1.4,1.2-1.6c2.1-1.1,4.6,5.5,13,.8Z"/>
      <path class="st1" d="M41.8,41c-.8,3.5-4.9,2.1-5.5,4.4,0,.9.7,1.6,1,2.4,1.2,2.6-2.1,5.2-4.3,3.3-2.6-2.3.1-7.7,1-10.6.5-1.4,1.2-2.8,2.6-3.5,2.8-1.3,6,.6,5.2,3.9h0Z"/>
      <path class="st1" d="M52.8,42.8c-.8,3.5-4.9,2.1-5.5,4.4,0,.9.7,1.6,1,2.4,1.2,2.6-2.1,5.2-4.3,3.3-2.6-2.3.1-7.7,1-10.6.5-1.4,1.2-2.8,2.6-3.5,2.8-1.3,6,.6,5.2,3.9h0Z"/>
    </g>
    <path class="st1" d="M54.4,35.4c-.5,0-.9-.1-1.4-.4-1.3-.8-1.8-2.4-1-3.7,2-3.4,5.1-6.2,8.8-7.7,1.4-.6,3,0,3.6,1.5.6,1.4,0,3-1.5,3.6-2.6,1.1-4.7,3-6.1,5.4-.5.9-1.4,1.4-2.4,1.4Z"/>
    <path class="st1" d="M43.8,33c-.4,0-.8,0-1.2-.3-1.4-.7-1.9-2.3-1.3-3.7,2.5-5.2,7-9.6,11.2-11,1.4-.5,3,.3,3.5,1.7.5,1.4-.3,3-1.7,3.5-2.3.8-5.9,3.9-7.9,8.1-.5,1-1.5,1.6-2.5,1.6Z"/>
  </g>
</svg>